<svg xmlns="http://www.w3.org/2000/svg" width="67" height="41" viewBox="0 0 67 41" fill="none">
<g clip-path="url(#clip0_191_11300)">
<path d="M45.9 9.4079H42.4556C41.537 4.25 37.863 0.25 33.5 0.25C29.137 0.25 25.463 4.14474 24.5444 9.4079H21.1C19.3778 9.4079 18 10.5658 18 12.1447V37.4079C18 38.9868 19.3778 40.25 20.9852 40.25H45.9C47.6222 40.25 49 38.9868 49 37.4079V12.1447C49 10.5658 47.6222 9.4079 45.9 9.4079ZM24.8889 14.6711C24.2 14.6711 23.6259 14.1447 23.6259 13.5132C23.6259 12.8816 24.2 12.3553 24.8889 12.3553C25.5778 12.3553 26.1519 12.8816 26.1519 13.5132C26.1519 14.1447 25.5778 14.6711 24.8889 14.6711ZM26.2667 9.4079C27.0704 5.09211 29.9407 1.93421 33.5 1.93421C36.9444 1.93421 39.9296 5.09211 40.7333 9.4079H26.2667ZM41.9963 14.6711C41.3074 14.6711 40.7333 14.1447 40.7333 13.5132C40.7333 12.8816 41.3074 12.3553 41.9963 12.3553C42.6852 12.3553 43.2593 12.8816 43.2593 13.5132C43.2593 14.1447 42.8 14.6711 41.9963 14.6711Z" fill="#6682A3"/>
</g>
<defs>
<clipPath id="clip0_191_11300">
<rect width="66" height="40" fill="white" transform="translate(0.5 0.25)"/>
</clipPath>
</defs>
</svg>