<svg xmlns="http://www.w3.org/2000/svg" width="67" height="41" viewBox="0 0 67 41" fill="none">
<g clip-path="url(#clip0_191_11302)">
<path fill-rule="evenodd" clip-rule="evenodd" d="M64.836 31.903H64.4136C63.1463 24.3597 56.2818 21.4429 52.1632 20.94C50.3679 20.7389 50.0511 18.1238 50.0511 18.1238H51.6352C51.8464 18.1238 52.1632 17.9227 52.1632 17.7215V11.5863C52.1632 11.2845 51.952 11.184 51.6352 11.184C48.0445 11.3851 48.2557 13.3967 48.2557 13.3967L46.1436 12.6926H42.553C42.3418 12.6926 42.1306 12.8938 42.1306 13.0949V14.0001C42.1306 14.1007 42.3418 14.3019 42.553 14.3019H46.1436C46.1436 14.3019 47.6221 20.94 47.9389 22.3481C48.467 23.8568 48.3613 25.466 47.7277 26.8741C47.1997 28.081 46.9885 29.4891 47.1997 30.7966C42.8698 32.0036 38.3287 32.0036 33.9988 30.8972V25.1643C36.3222 24.8626 36.9558 24.1585 37.0614 23.7562H37.5895C37.9063 23.7562 38.1175 23.555 38.1175 23.2533V21.6441C38.1175 21.3423 37.9063 21.1412 37.5895 21.1412C37.2726 21.1412 37.0614 20.94 37.0614 20.6383V8.26721C37.0614 7.96548 37.2726 7.76432 37.5895 7.76432C37.9063 7.76432 38.1175 7.56317 38.1175 7.26143V5.75277C38.1175 5.45103 37.9063 5.24988 37.5895 5.24988H12.5607C12.2439 5.24988 12.0326 5.45103 12.0326 5.75277V7.36201C12.0326 7.66375 12.2439 7.8649 12.5607 7.8649C12.8775 7.8649 13.0887 8.06606 13.0887 8.36779V20.6383C13.0887 20.94 12.8775 21.1412 12.5607 21.1412C12.2439 21.1412 12.0326 21.3423 12.0326 21.6441V23.2533C12.0326 23.555 12.2439 23.7562 12.5607 23.7562H21.1148C19.9531 24.1585 19.1083 24.8626 18.369 25.7678H6.7523C6.22427 25.7678 5.80184 26.1701 5.80184 26.673C5.80184 26.9747 6.22427 27.377 6.7523 27.377H17.313C17.1424 27.6206 17.0407 27.9298 16.9523 28.1987C16.9312 28.2628 16.9109 28.3247 16.8905 28.3828H8.65322C8.12519 28.3828 7.70276 28.7851 7.70276 29.288C7.70276 29.7909 8.12519 30.1932 8.65322 30.1932H16.2569C16.2349 30.2771 16.2128 30.3567 16.1917 30.4329C16.1118 30.7214 16.0457 30.9602 16.0457 31.199H2.95046C2.42243 31.199 2 31.6013 2 32.1042C2 32.607 2.42243 33.0094 2.95046 33.0094H16.1513C17.1018 34.3169 18.4746 35.3226 20.1644 35.8255C20.798 38.8429 23.8606 40.8544 27.0288 40.251C29.4577 39.8487 31.2531 38.0382 31.6755 35.725H31.8867L33.2596 34.8198L48.1501 34.7192L49.523 35.6244H49.6286C50.2623 38.6417 53.3249 40.6533 56.4931 40.0498C58.922 39.6475 60.7173 37.8371 61.1398 35.5238H61.2454L65.364 33.3111V32.4059C65.364 32.1042 65.1528 31.903 64.836 31.903ZM29.7746 35.6244C29.4577 37.2336 28.1905 38.4406 26.5008 38.6417C24.3886 38.9435 22.3821 37.5354 22.0653 35.5238C21.7485 33.5122 23.2269 31.6013 25.3391 31.2995C27.4512 30.9978 29.4577 32.4059 29.7746 34.4174C29.8802 34.8198 29.8802 35.2221 29.7746 35.6244ZM31.1475 10.0776L27.6624 13.6984C27.4512 13.8996 27.1344 13.8996 26.8176 13.6984L26.3952 13.2961L25.1279 14.9053L29.4577 19.2302C29.669 19.4314 29.669 19.6325 29.4577 19.8337L28.7185 20.3366C28.5073 20.4371 28.1905 20.4371 28.0849 20.236L24.4942 15.8106L20.6924 20.3366C20.4812 20.5377 20.27 20.5377 20.0587 20.4371L19.3195 19.9342C19.1083 19.8337 19.1083 19.5319 19.2139 19.3308L23.5438 15.0059L22.0653 13.1955C20.9036 13.6984 19.5307 13.3967 18.6859 12.3909C17.5242 11.0834 17.313 8.97126 18.0522 8.36779C18.7915 7.76432 21.1148 8.16663 22.2765 9.47415C23.2269 10.2788 23.4382 11.6869 22.5933 12.6926L24.1774 14.2013L25.5503 12.7932L25.0223 12.2903C24.811 12.0892 24.8111 11.7874 24.9167 11.5863L28.4017 7.96548C28.5073 7.8649 28.7185 7.76432 28.8241 7.8649C28.9297 7.8649 29.0353 8.06606 29.0353 8.16664V8.26721L26.5008 10.9828C26.3952 10.9828 26.3952 11.0834 26.5008 11.184C26.6064 11.184 26.712 11.184 26.712 11.0834L29.4577 8.36779C29.5634 8.26721 29.669 8.26721 29.7746 8.36779C29.8802 8.46837 29.8802 8.56895 29.7746 8.66952L27.3456 11.5863C27.24 11.5863 27.24 11.6869 27.24 11.7874C27.3456 11.7874 27.4512 11.7874 27.4512 11.6869L30.197 8.97126C30.3026 8.87068 30.4082 8.87068 30.5138 8.97126C30.6194 9.07184 30.6194 9.17241 30.5138 9.27299L27.9793 12.0892C27.9264 12.1395 27.9 12.1646 27.9 12.1897C27.9 12.2149 27.9264 12.24 27.9793 12.2903C28.0849 12.2903 28.1905 12.2903 28.1905 12.1897L30.8306 9.57472C30.9362 9.47415 31.1475 9.47415 31.2531 9.57472C31.3587 9.87646 31.3587 9.97704 31.1475 10.0776ZM59.2388 35.6244C58.922 37.2336 57.6547 38.4406 55.965 38.6417C53.8529 38.9435 51.8464 37.5354 51.5295 35.5238C51.2127 33.5122 52.6912 31.6013 54.8034 31.2995C56.9155 30.9978 58.922 32.4059 59.2388 34.4174C59.3444 34.8198 59.3444 35.2221 59.2388 35.6244ZM26.3913 33.1299C25.3353 33.1299 24.4904 33.9345 24.4904 34.9403C24.4904 35.9461 25.3353 36.6501 26.3913 36.6501C27.4474 36.6501 28.1866 35.8455 28.1866 34.8397C28.1866 33.9345 27.3418 33.1299 26.3913 33.1299ZM53.403 34.9403C53.403 33.9345 54.2478 33.1299 55.3039 33.1299C56.2544 33.1299 57.0992 33.9345 57.0992 34.8397C57.0992 35.8455 56.36 36.6501 55.3039 36.6501C54.2478 36.6501 53.403 35.9461 53.403 34.9403Z" fill="black"/>
</g>
<defs>
<clipPath id="clip0_191_11302">
<rect width="66" height="40" fill="white" transform="translate(0.5 0.25)"/>
</clipPath>
</defs>
</svg>