<svg xmlns="http://www.w3.org/2000/svg" xmlns:xlink="http://www.w3.org/1999/xlink" viewBox="0 0 65.81 99.04"><defs><style>.cls-1{fill:none;}.cls-2{isolation:isolate;}.cls-3{clip-path:url(#clip-path);}.cls-4{clip-path:url(#clip-path-2);}.cls-5{fill:#fcd7a4;}.cls-22,.cls-6,.cls-69{opacity:0.5;}.cls-15,.cls-6{mix-blend-mode:multiply;}.cls-7{clip-path:url(#clip-path-4);}.cls-8{fill:#fccf93;}.cls-9{fill:#eee6e3;}.cls-10{fill:#454444;}.cls-11{fill:#5b2710;}.cls-12{fill:#383838;}.cls-13{clip-path:url(#clip-path-5);}.cls-14{fill:#f2cc9e;}.cls-16{clip-path:url(#clip-path-6);}.cls-17{fill:#e3bc84;}.cls-18{fill:#441a09;}.cls-19{clip-path:url(#clip-path-7);}.cls-20{fill:#d6c8c4;}.cls-21{clip-path:url(#clip-path-8);}.cls-23{clip-path:url(#clip-path-9);}.cls-24{fill:#fff;}.cls-25{clip-path:url(#clip-path-10);}.cls-26{opacity:0.3;}.cls-26,.cls-69{mix-blend-mode:screen;}.cls-27{clip-path:url(#clip-path-11);}.cls-28{clip-path:url(#clip-path-12);}.cls-29{clip-path:url(#clip-path-13);}.cls-30{clip-path:url(#clip-path-14);}.cls-31{clip-path:url(#clip-path-15);}.cls-32{clip-path:url(#clip-path-16);}.cls-33{clip-path:url(#clip-path-17);}.cls-34{fill:#fde5c3;}.cls-35{clip-path:url(#clip-path-18);}.cls-36{clip-path:url(#clip-path-19);}.cls-37{clip-path:url(#clip-path-20);}.cls-38{clip-path:url(#clip-path-21);}.cls-39{clip-path:url(#clip-path-22);}.cls-40{fill:#d9d3c0;}.cls-41{clip-path:url(#clip-path-23);}.cls-42{fill:#894624;}.cls-43{clip-path:url(#clip-path-24);}.cls-44{fill:#a05830;}.cls-45{clip-path:url(#clip-path-25);}.cls-46{clip-path:url(#clip-path-26);}.cls-47{clip-path:url(#clip-path-27);}.cls-48{clip-path:url(#clip-path-28);}.cls-49{clip-path:url(#clip-path-29);}.cls-50{clip-path:url(#clip-path-30);}.cls-51{fill:#1d1d1b;}.cls-52{fill:#f1f1f1;}.cls-53{fill:#811527;}.cls-54{fill:#f19c99;}.cls-55{clip-path:url(#clip-path-31);}.cls-56{clip-path:url(#clip-path-32);}.cls-57{clip-path:url(#clip-path-33);}.cls-58{clip-path:url(#clip-path-34);}.cls-59{clip-path:url(#clip-path-35);}.cls-60{clip-path:url(#clip-path-36);}.cls-61{clip-path:url(#clip-path-37);}.cls-62{clip-path:url(#clip-path-38);}.cls-63{fill:#968e77;}.cls-64{clip-path:url(#clip-path-39);}.cls-65{clip-path:url(#clip-path-40);}.cls-66{clip-path:url(#clip-path-41);}.cls-67{clip-path:url(#clip-path-42);}.cls-68{clip-path:url(#clip-path-43);}.cls-70{clip-path:url(#clip-path-44);}.cls-71{clip-path:url(#clip-path-45);}</style><clipPath id="clip-path" transform="translate(0 0)"><path class="cls-1" d="M26,70H45a8.69,8.69,0,0,0,4.19-3,9.85,9.85,0,0,1,3.56,3H66V0H0V70Z"/></clipPath><clipPath id="clip-path-2" transform="translate(0 0)"><rect class="cls-1" width="65.81" height="99.04"/></clipPath><clipPath id="clip-path-4" transform="translate(0 0)"><rect class="cls-1" x="47.67" y="48.22" width="13.2" height="20.99"/></clipPath><clipPath id="clip-path-5" transform="translate(0 0)"><rect class="cls-1" x="11.48" y="38.28" width="5.74" height="8.99"/></clipPath><clipPath id="clip-path-6" transform="translate(0 0)"><rect class="cls-1" x="14.04" y="41.87" width="1.71" height="2.83"/></clipPath><clipPath id="clip-path-7" transform="translate(0 0)"><rect class="cls-1" y="36.97" width="13.41" height="11.99"/></clipPath><clipPath id="clip-path-8" transform="translate(0 0)"><rect class="cls-1" x="2.4" y="34.68" width="8.16" height="2.27"/></clipPath><clipPath id="clip-path-9" transform="translate(0 0)"><rect class="cls-1" x="3.66" y="35.03" width="1.94" height="0.63"/></clipPath><clipPath id="clip-path-10" transform="translate(0 0)"><rect class="cls-1" x="2.87" y="35.89" width="1.08" height="0.46"/></clipPath><clipPath id="clip-path-11" transform="translate(0 0)"><rect class="cls-1" x="0.58" y="38.81" width="10.14" height="8.56"/></clipPath><clipPath id="clip-path-12" transform="translate(0 0)"><rect class="cls-1" x="13.53" y="38.33" width="2.65" height="1.46"/></clipPath><clipPath id="clip-path-13" transform="translate(0 0)"><rect class="cls-1" x="15.14" y="44.95" width="1.69" height="2.17"/></clipPath><clipPath id="clip-path-14" transform="translate(0 0)"><rect class="cls-1" x="15.17" y="40.41" width="12.95" height="11.85"/></clipPath><clipPath id="clip-path-15" transform="translate(0 0)"><rect class="cls-1" x="32.14" y="93.18" width="5.93" height="4.39"/></clipPath><clipPath id="clip-path-16" transform="translate(0 0)"><rect class="cls-1" x="30.87" y="72.66" width="7.14" height="24.4"/></clipPath><clipPath id="clip-path-17" transform="translate(0 0)"><rect class="cls-1" x="32.81" y="82.96" width="1.33" height="0.58"/></clipPath><clipPath id="clip-path-18" transform="translate(0 0)"><rect class="cls-1" x="44.02" y="89.42" width="5.65" height="7.39"/></clipPath><clipPath id="clip-path-19" transform="translate(0 0)"><rect class="cls-1" x="39.32" y="82.37" width="1.36" height="0.43"/></clipPath><clipPath id="clip-path-20" transform="translate(0 0)"><rect class="cls-1" x="36.29" y="72.69" width="12.43" height="23.58"/></clipPath><clipPath id="clip-path-21" transform="translate(0 0)"><rect class="cls-1" x="26.1" y="60.35" width="23.34" height="12.91"/></clipPath><clipPath id="clip-path-22" transform="translate(0 0)"><rect class="cls-1" x="32.34" y="39.6" width="10" height="4.54"/></clipPath><clipPath id="clip-path-23" transform="translate(0 0)"><rect class="cls-1" x="26.29" y="45.24" width="23.26" height="15.32"/></clipPath><clipPath id="clip-path-24" transform="translate(0 0)"><rect class="cls-1" x="49.32" y="22.05" width="16.19" height="31.73"/></clipPath><clipPath id="clip-path-25" transform="translate(0 0)"><rect class="cls-1" x="27.39" y="60.38" width="18.37" height="12.06"/></clipPath><clipPath id="clip-path-26" transform="translate(0 0)"><rect class="cls-1" x="29.25" y="31.9" width="13.61" height="6.83"/></clipPath><clipPath id="clip-path-27" transform="translate(0 0)"><rect class="cls-1" x="26.76" y="24.11" width="3.55" height="2.85"/></clipPath><clipPath id="clip-path-28" transform="translate(0 0)"><rect class="cls-1" x="41" y="23.79" width="3.55" height="2.85"/></clipPath><clipPath id="clip-path-29" transform="translate(0 0)"><rect class="cls-1" x="26.2" y="20.57" width="4.69" height="3.36"/></clipPath><clipPath id="clip-path-30" transform="translate(0 0)"><rect class="cls-1" x="38.92" y="19.83" width="6.87" height="3.77"/></clipPath><clipPath id="clip-path-31" transform="translate(0 0)"><rect class="cls-1" x="33.71" y="36.85" width="5.25" height="1.38"/></clipPath><clipPath id="clip-path-32" transform="translate(0 0)"><rect class="cls-1" x="15.61" width="45.78" height="36.19"/></clipPath><clipPath id="clip-path-33" transform="translate(0 0)"><rect class="cls-1" x="16.03" y="25.97" width="3.92" height="5.04"/></clipPath><clipPath id="clip-path-34" transform="translate(0 0)"><rect class="cls-1" x="17.25" y="27.41" width="1.7" height="2.38"/></clipPath><clipPath id="clip-path-35" transform="translate(0 0)"><rect class="cls-1" x="53.93" y="26.09" width="4.61" height="5.3"/></clipPath><clipPath id="clip-path-36" transform="translate(0 0)"><rect class="cls-1" x="55.24" y="27.66" width="2.08" height="2.3"/></clipPath><clipPath id="clip-path-37" transform="translate(0 0)"><rect class="cls-1" x="28.98" y="60.38" width="16.02" height="10.86"/></clipPath><clipPath id="clip-path-38" transform="translate(0 0)"><rect class="cls-1" x="29.5" y="45.58" width="1.43" height="5.39"/></clipPath><clipPath id="clip-path-39" transform="translate(0 0)"><rect class="cls-1" x="41.15" y="45.35" width="3.39" height="4.14"/></clipPath><clipPath id="clip-path-40" transform="translate(0 0)"><rect class="cls-1" x="26.98" y="41.29" width="4.98" height="4.04"/></clipPath><clipPath id="clip-path-41" transform="translate(0 0)"><rect class="cls-1" x="42.63" y="41.05" width="4.86" height="3.76"/></clipPath><clipPath id="clip-path-42" transform="translate(0 0)"><rect class="cls-1" x="13.77" y="39.57" width="2.14" height="6.1"/></clipPath><clipPath id="clip-path-43" transform="translate(0 0)"><polyline class="cls-1" points="55.16 37.14 55.16 10.87 19.11 10.87 19.11 40.79 55.16 40.79 55.16 37.14"/></clipPath><clipPath id="clip-path-44" transform="translate(0 0)"><rect class="cls-1" x="16.67" y="1.52" width="40.7" height="15.06"/></clipPath><clipPath id="clip-path-45" transform="translate(0 0)"><rect class="cls-1" x="54.3" y="28.33" width="10.26" height="21.14"/></clipPath></defs><title>girl_OK</title><g class="cls-2"><g id="Layer_2" data-name="Layer 2"><g id="Layer_1-2" data-name="Layer 1"><g class="cls-3"><g class="cls-4"><g class="cls-4"><path class="cls-5" d="M47.67,51S53,58,54.07,63.17a1.12,1.12,0,0,0-.72,1.06,3.42,3.42,0,0,1-.58,2.16c-.48.67.43,2.36,1.49-1,1.59,1.44,1.83,1.92,1.88,3s2,1.59,0-3c1.3,1.63,2,3.22,2.4,3.12s.1-1.54-1.25-3.41c1.2.48,2.07,2.36,2.55,2.16s-.67-1.88-1.78-2.79c1.2.19,2.6,1.11,2.84.62s-2.21-2-4.57-2.31c-1.2-5.67-4.13-12.4-6.49-14.66A23,23,0,0,0,47.67,51" transform="translate(0 0)"/><g class="cls-6"><g class="cls-7"><path class="cls-8" d="M60.48,64.59c0,.31-.44.41-1,.12-1.11-.53-2.35-.9-1.36.07,1.47,1.38,1.57,2.42.85,1.54S56.55,64.39,57,65c.85,1.13,1.57,3,1.34,3.13S57,66.35,56.46,65.52s-.69-.3,0,1.47-.07,2.12-.14,1.34a4.23,4.23,0,0,0-1.1-2.52c-.79-.94-1.37-1.88-.79-2.38s.22-.79-.58-3.1c-1.51-4-5.26-9.3-4.69-10,.34-.39.89-1,1.27-1.39a7.74,7.74,0,0,0-.7-.78A23,23,0,0,0,47.67,51S53,58,54.07,63.17a1.12,1.12,0,0,0-.72,1.06,3.42,3.42,0,0,1-.58,2.16c-.48.67.43,2.36,1.49-1,1.59,1.44,1.83,1.92,1.88,3s2,1.59,0-3c1.3,1.63,2,3.22,2.4,3.12s.1-1.54-1.25-3.41c1.2.48,2.07,2.36,2.55,2.16s-.67-1.88-1.78-2.79c1.2.19,2.6,1.11,2.84.62.07-.13-.08-.35-.37-.6" transform="translate(0 0)"/></g></g><path class="cls-9" d="M12.43,37H.4s2.06,1.45,1.67,1.93C-.57,42.13-.54,44.65,1.34,47s9.77,3.06,11.39-.54a6.38,6.38,0,0,0-1.44-7.64c-.61-.83.15-1.13,1.14-1.85" transform="translate(0 0)"/><rect class="cls-10" x="3.17" y="36.85" width="6.66" height="0.96"/><path class="cls-11" d="M.44,44.1S.69,48.7,7,48.7s6-4.58,6-4.58Z" transform="translate(0 0)"/><path class="cls-12" d="M17.27,43.39c-.11-2.13-.79-4.25-2.42-5a3.28,3.28,0,0,0-3.38.67,7.17,7.17,0,0,1,.65.71,2.75,2.75,0,0,1,2-.36c1.73.36,1.9,3.63,1.49,5.19s-1.65,2-2.65,1.48a7.88,7.88,0,0,1-.43.92c3.89,1.12,4.87-1.48,4.76-3.6" transform="translate(0 0)"/><g class="cls-6"><g class="cls-13"><path class="cls-12" d="M15.37,39.66c-1.44-1.76-2.88-.12-2.81-.89a.7.7,0,0,1,.32-.5,3.5,3.5,0,0,0-1.4.78,7.17,7.17,0,0,1,.65.71,2.75,2.75,0,0,1,2-.36c1.73.36,1.9,3.63,1.49,5.19s-1.65,2-2.65,1.48a7.84,7.84,0,0,1-.43.92,5.9,5.9,0,0,0,1.9.26c-.3-.21-.25-.62.4-.84,2.21-1.18,1.06-3.92,1.78-4a.88.88,0,0,1,.62.25,8.06,8.06,0,0,0-.63-2.43,1.35,1.35,0,0,1-1.22-.62" transform="translate(0 0)"/></g></g><path class="cls-14" d="M14.68,39.57s-1.61,0-.62,2.38a1,1,0,0,0,.07,1.61.61.61,0,0,0,.22,1,.58.58,0,0,0,.29,1.11c.72,0,1.25-.79.79-1,.48-.34.62-1.23.19-1.23.46-.53.34-1,0-1a3,3,0,0,0-.91-2.81" transform="translate(0 0)"/><g class="cls-15"><g class="cls-16"><path class="cls-17" d="M15.63,42.26a.73.73,0,0,1-1,.14,4.46,4.46,0,0,1-.61-.52s0,0,0,0c.26.32.47.64.9.72a.72.72,0,0,0,.72-.34s0-.08,0,0" transform="translate(0 0)"/><path class="cls-17" d="M15.66,43.29a1.22,1.22,0,0,1-1.5.23s0,0,0,0a1.1,1.1,0,0,0,1.57-.25s0-.07,0,0" transform="translate(0 0)"/><path class="cls-17" d="M15.69,44.28a1.38,1.38,0,0,1-1.36.22s-.06.06,0,.07a1.19,1.19,0,0,0,1.44-.26s0-.06,0,0" transform="translate(0 0)"/></g></g><path class="cls-18" d="M13,44.1c0,.33-2.81.59-6.28.59S.44,44.43.44,44.1s2.81-.59,6.28-.59,6.28.26,6.28.59" transform="translate(0 0)"/><path d="M6.94,34.47a.52.52,0,0,1-.46.57.59.59,0,0,1,0-1.14.52.52,0,0,1,.46.57" transform="translate(0 0)"/><path class="cls-12" d="M10.56,36.95c-.4-1.3-2.07-2.27-4.08-2.27s-3.68,1-4.08,2.27Z" transform="translate(0 0)"/><g class="cls-15"><g class="cls-19"><path class="cls-20" d="M11.29,38.81c-.61-.83.15-1.13,1.14-1.85H.4s.27.19.6.46c1.82,0,6.39-.12,9-.09,1.3.11-.82.57.58,1.8a5.64,5.64,0,0,1,1.95,5.08c-.25,1.95-2.81,4.4-7.17,3.71a4.78,4.78,0,0,1-3.79-7c1.16-2,1.22-2,.28-2.77.25.29.4.56.27.73C-.57,42.13-.54,44.65,1.34,47s9.77,3.06,11.39-.54a6.38,6.38,0,0,0-1.44-7.64" transform="translate(0 0)"/></g></g><g class="cls-6"><g class="cls-21"><path class="cls-12" d="M10.56,36.95c-.4-1.3-2.07-2.27-4.08-2.27a5.6,5.6,0,0,0-2.24.45c1.47-.37,3.79-.66,5.16,1.32-3.81,0-5.9.1-6.84.11a2.21,2.21,0,0,0-.17.39Z" transform="translate(0 0)"/></g></g><g class="cls-22"><g class="cls-23"><path class="cls-24" d="M4.38,35.58A3.08,3.08,0,0,1,5.59,35a4,4,0,0,0-1.94.63l.72-.07" transform="translate(0 0)"/></g></g><g class="cls-22"><g class="cls-25"><path class="cls-24" d="M3.25,36a2.56,2.56,0,0,0-.38.39h.52c.2-.18.38-.33.55-.46l-.7.07" transform="translate(0 0)"/></g></g><g class="cls-26"><g class="cls-27"><path class="cls-9" d="M10.71,43.09c0,2.36-2.27,4.28-5.07,4.28S.58,45.46.58,43.09s2.27-4.28,5.07-4.28,5.07,1.92,5.07,4.28" transform="translate(0 0)"/></g></g><path class="cls-24" d="M3.44,41.57c-.3.58-.88.88-1.29.67a1.06,1.06,0,0,1-.22-1.44c.3-.58.88-.88,1.29-.67a1.06,1.06,0,0,1,.22,1.44" transform="translate(0 0)"/><path class="cls-24" d="M2.09,43.49c-.11.27-.34.44-.53.37s-.25-.35-.14-.63.34-.44.53-.37.25.35.14.63" transform="translate(0 0)"/><g class="cls-22"><g class="cls-28"><path class="cls-24" d="M15,38.62a1.88,1.88,0,0,0-1.45-.24s-.06.08,0,.07a2.31,2.31,0,0,1,.64,0,2.91,2.91,0,0,1,.89.4,3.82,3.82,0,0,1,1,.95s.11-.07.09-.11A3,3,0,0,0,15,38.62" transform="translate(0 0)"/></g></g><g class="cls-22"><g class="cls-29"><path class="cls-24" d="M16.77,45a2.73,2.73,0,0,1-1.56,2s-.12.17,0,.15A2.73,2.73,0,0,0,16.83,45s-.05,0-.06,0" transform="translate(0 0)"/></g></g><path class="cls-5" d="M26.07,46.81s-1.51,2.16-3,2.09-4.51-3.68-4.51-3.68a3.59,3.59,0,0,0,0-3.21c-.9-1.44-3.25-2.06-3.39-1.3S17,42.24,17,42.24a2.77,2.77,0,0,0,.18,2.52,3.3,3.3,0,0,1-1.12,1.8c-.36.36.76.47.76.47s2.16,5,5.91,5.23a6.92,6.92,0,0,0,5.37-2.56,12.36,12.36,0,0,1-2.06-2.88" transform="translate(0 0)"/><g class="cls-6"><g class="cls-30"><path class="cls-8" d="M26.07,46.81s-.17.23-.44.54A1.42,1.42,0,0,1,25.41,50a1.31,1.31,0,0,1-1.78-1.14,1.79,1.79,0,0,1-.42.07,1.62,1.62,0,0,1-.12.82c-.71,1.55-2.95-.32-3.69-1-.43-.38-2.07-2.4-.8-2.79a1.07,1.07,0,0,1,.68.08c-.43-.47-.71-.8-.71-.8l.05-.11a.61.61,0,0,1-.63,0c-1.15-.71-1-2-.48-3.09-.67,0-1.82-.35-1.95-1.06a.89.89,0,0,1,0-.51c-.23,0-.39.13-.42.31C15,41.48,17,42.24,17,42.24a2.77,2.77,0,0,0,.18,2.52,3.3,3.3,0,0,1-1.12,1.8c-.36.36.76.47.76.47s2.16,5,5.91,5.23a6.92,6.92,0,0,0,5.37-2.56,12.36,12.36,0,0,1-2.06-2.88" transform="translate(0 0)"/></g></g><path class="cls-5" d="M33.47,97.06c1.28,0,3.37-1.84,4.53-3.89,0-.17-.06-.35-.09-.53-.25-1.29-.28-7.17-.62-10.63a78,78,0,0,1-.1-8.75l-6.33-.61s.69,4.91,2.3,12.82a75.36,75.36,0,0,1,1.15,7.68,19.9,19.9,0,0,0-1.67,2.72c0,.6.11,1.19.82,1.18" transform="translate(0 0)"/><path class="cls-12" d="M33.47,97.06c-.71,0-.85-.58-.82-1.18-.53,1.08-.88,2.22-.47,2.83.81.87,3.31,0,4.83-1.94a4.36,4.36,0,0,0,1-3.6c-1.16,2-3.25,3.86-4.53,3.89" transform="translate(0 0)"/><g class="cls-15"><g class="cls-31"><path class="cls-12" d="M32.14,97.19c.47,0,.79.39,1.26.38a4.2,4.2,0,0,0,2.2-1.09,2.87,2.87,0,0,1,1-.61.61.61,0,0,1,.74.39A4.12,4.12,0,0,0,38,93.18c-1.16,2-3.25,3.86-4.53,3.89-.71,0-.85-.58-.82-1.18a7.93,7.93,0,0,0-.52,1.31" transform="translate(0 0)"/></g></g><g class="cls-6"><g class="cls-32"><path class="cls-8" d="M37.91,92.65c-.25-1.29-.28-7.17-.62-10.63a78,78,0,0,1-.1-8.75l-6.33-.61s.09.66.29,1.88c1.66-.28,6-.24,4.51,8.29a22.21,22.21,0,0,1,1,9.45C37,93.72,36,94.8,34.8,95.88c-.9.8-2,.85-2.08-.13l-.06.12c0,.6.11,1.19.82,1.18,1.28,0,3.37-1.84,4.53-3.89,0-.17-.06-.35-.09-.53" transform="translate(0 0)"/></g></g><g class="cls-6"><g class="cls-33"><path class="cls-8" d="M32.91,83a1.08,1.08,0,0,0,.92.28c.64,0,.2.38-.38.28s-.76-.61-.53-.56" transform="translate(0 0)"/></g></g><path class="cls-34" d="M33.08,82.15s-1-1-1.27-4.65c-.21-3.09,2.18-1.85,3.15.56s-.27,5.81-1.88,4.08" transform="translate(0 0)"/><path class="cls-34" d="M33.51,85.23c-.12,1,.85,7.21,1.67,7.05s1.73-3.55.9-5.92-2.41-2.47-2.57-1.13" transform="translate(0 0)"/><path class="cls-34" d="M34.36,93.55s-1.68,1.3-1.05,2.17,2.85-3.35,1.05-2.17" transform="translate(0 0)"/><path class="cls-5" d="M45.07,96.24c1.38-.27,3.24-3.07,3.65-6.82l-.18-.1c-.87-.53-2.26-3-3.22-4.71A26.84,26.84,0,0,1,42,72.69l-5.67.72A41.5,41.5,0,0,0,40,84.32c3,5.09,5,6.25,4.81,7.5A31.62,31.62,0,0,0,44,95.54a.85.85,0,0,0,1,.7" transform="translate(0 0)"/><path class="cls-12" d="M48.72,89.42c-.41,3.76-2.27,6.55-3.65,6.82a.85.85,0,0,1-1-.7c-.11,1.19,0,2.25.84,2.53,1.78.63,4.42-4.52,4.71-6.25.22-1.47-.17-2-.88-2.4" transform="translate(0 0)"/><g class="cls-15"><g class="cls-35"><path class="cls-12" d="M44.38,96.48c.35,0,.54.25.85.32.53.11,1-.52,1.32-.88A14.19,14.19,0,0,0,48,93.64c.19-.37.9-1.73,1.56-1.49,0-.12.05-.23.07-.33.22-1.47-.17-2-.88-2.4-.41,3.76-2.27,6.55-3.65,6.82a.85.85,0,0,1-1-.7,6.16,6.16,0,0,0,0,1.06.5.5,0,0,1,.34-.12" transform="translate(0 0)"/></g></g><g class="cls-6"><g class="cls-36"><path class="cls-8" d="M39.4,82.4a1.08,1.08,0,0,0,1,0c.6-.22.3.31-.29.37s-.9-.38-.67-.4" transform="translate(0 0)"/></g></g><g class="cls-6"><g class="cls-37"><path class="cls-8" d="M48.54,89.32c-.87-.53-2.26-3-3.22-4.71A26.84,26.84,0,0,1,42,72.69l-5.67.72s.1.56.31,1.49c1.47-.5,4.51-1.33,4.62.36.14,2.23,1.37,4.54.65,6.71,2.16,2.23,4.76,7.14,4.69,8.15,1.44.72.65,2.81-.29,4.33-.77,1.24-1.82,1.27-2.06,0-.06.36-.12.73-.15,1.08a.85.85,0,0,0,1,.7c1.38-.27,3.24-3.07,3.65-6.82l-.18-.1" transform="translate(0 0)"/></g></g><path class="cls-34" d="M39,81.59s-1-1-1.27-4.65c-.21-3.09,2.18-1.85,3.15.56s-.27,5.81-1.88,4.09" transform="translate(0 0)"/><path class="cls-34" d="M40.75,84.51c.32.9,3.77,6.2,4.33,5.8s-.22-3.75-1.88-5.61-2.9-1.44-2.45-.19" transform="translate(0 0)"/><path class="cls-34" d="M45.16,92.12s-1.06,2-.37,2.54,2.17-4.16.37-2.54" transform="translate(0 0)"/><path class="cls-12" d="M29.56,60.53s-2.69,9-3.46,11.1c0,0,9.06,6.59,23.34-1.71l-3.94-9.57a22.81,22.81,0,0,1-15.93.17" transform="translate(0 0)"/><g class="cls-15"><g class="cls-38"><path class="cls-12" d="M27.94,70A.07.07,0,0,1,28,70a8,8,0,0,0,1.61,1.46,3.06,3.06,0,0,0,2,.16s.06,0,.06.07c.38,1.49,2.57,1.45,3.54.62a.07.07,0,0,1,.09,0c.65.62,1.76,1.3,2.69.83.6-.3,1-.83,1.68-1,1.3-.32,2.69.33,3-1.51,0-.06.08-.16.15-.13C44.52,71,45,69.15,45.56,68c.34-.68,1-1.1,1.68-.51a6.08,6.08,0,0,1,1.57,2.69l0,.08.6-.34-3.94-9.57a22.81,22.81,0,0,1-15.93.17s-2.69,9-3.46,11.1c0,0,.15.11.45.29a4.94,4.94,0,0,1,1.4-2" transform="translate(0 0)"/></g></g><path class="cls-12" d="M26.29,45.9l-.22-.31-.75.64s2.27,3.57,4,4.45l.36-.58v.26l.12-.43c-1.1-1.1-3.48-4-3.48-4" transform="translate(0 0)"/><path class="cls-24" d="M49.55,47.26s-6.69-9.15-13.7-7.45c0,0-3.35-.42-9.56,6.09,0,0,2.39,2.92,3.48,4l-.12.43a70.35,70.35,0,0,0,.24,8.9c6.49,2.31,12.83,1.15,15.36-.36-.29-5.62-.87-9.45-.87-9.45L46,50.89Z" transform="translate(0 0)"/><g class="cls-22"><g class="cls-39"><path class="cls-40" d="M32.52,41.25c.24.77-.05,1.9.47,2.54s1.65.15,2.33-.13a3.64,3.64,0,0,1,1.31-.39,3.77,3.77,0,0,1,1.21.28,3.65,3.65,0,0,0,2.08.28c.77-.29.39-1.21.66-1.74A2.26,2.26,0,0,1,42,41l.36-.1a9.19,9.19,0,0,0-6.48-1.08s-1.21-.15-3.51,1.14a.75.75,0,0,1,.18.31" transform="translate(0 0)"/></g></g><g class="cls-22"><g class="cls-41"><path class="cls-40" d="M49.55,47.26a23.82,23.82,0,0,0-1.61-1.9c-.12.28-.24.56-.38.84a4,4,0,0,1-1.88,2c-2.08.75-3.27-1.6-4.49-3,.68,1.44,1.65,2.68,1.74,4.37.05.94,0,1.89.16,2.83a13.57,13.57,0,0,1,.21,2.24,3.42,3.42,0,0,1-1.82,3,7.23,7.23,0,0,1-4.11.95A10,10,0,0,1,32.89,57a5.35,5.35,0,0,1-2.19-3.89,35.42,35.42,0,0,1-.13-4.83A9.33,9.33,0,0,1,31,45.38c-.22.33-.44.67-.68,1s-.63,1.09-1,1.17c-.7.13-1.33-.69-1.68-1.18a7.61,7.61,0,0,1-.68-1.11l-.63.64s2.39,2.92,3.48,4l-.12.43a70.35,70.35,0,0,0,.24,8.9c6.49,2.31,12.83,1.15,15.36-.36-.29-5.62-.87-9.45-.87-9.45L46,50.89Z" transform="translate(0 0)"/></g></g><path class="cls-42" d="M60.83,22s6,1.95,4.83,9.73c-1.3,3.82-2.67,6-5,8-2.16,1.66-2.09,3.46-1.23,4.4s.87,1.59.36,2.81.65,2.09,1.3,1.8a1.08,1.08,0,0,1-1.66.79s2.38.79-.58,3.61l-.72.58s1.11-1.39-1.69-1.54c-2.58-.18-3-2.22-2.37-3.79a1.62,1.62,0,0,1-2.48-.11c1.89-.58,2.37-2.07.22-4s-4.48-5.06.15-9.06c6-3.57,8.48-5.88,8.84-13.26" transform="translate(0 0)"/><g class="cls-6"><g class="cls-43"><path class="cls-44" d="M60.68,39.78c.37-.32.71-.65,1-1-.57.35-1.15.71-1.71,1.08-.87.58-1.87,1.45-1.74,2.62a21,21,0,0,0,.61,2.08,4.73,4.73,0,0,1,0,1.84,2.67,2.67,0,0,0,.54,2.37c.07.08,0,.28-.13.25-.46-.11-.78-.55-1.17-.79s-.62.2-.44.66a2.57,2.57,0,0,0,.53.8c.64.71,1.33,1.41.65,2.33,0,.06-.14.11-.16,0-.35-1.67-2.14-1.13-3.06-2.25s-.18-2.4-.23-3.73A2.36,2.36,0,0,1,54,47c-.12,0-.09-.15-.05-.2A2.44,2.44,0,0,0,54.47,45c-.39-1.78-2.29-2.81-2.46-4.69a3.5,3.5,0,0,1,1.3-3c1.31-1.11,3-1.53,4.4-2.55a9.68,9.68,0,0,0,2.86-3.81c.68-1.4,2.6-5.37,4.73-3.71l.19.17A7.75,7.75,0,0,0,60.83,22C60.47,29.42,58,31.73,52,35.31c-4.62,4-2.29,7.17-.15,9.06s1.67,3.39-.22,4a1.62,1.62,0,0,0,2.48.11c-.62,1.57-.22,3.6,2.37,3.79,2.8.15,1.69,1.54,1.69,1.54l.72-.58c2.43-2.31,1.26-3.26.76-3.52.36.13,1.14.27,1.47-.88-.65.29-1.8-.58-1.3-1.8s.51-1.87-.36-2.81-.94-2.74,1.23-4.4" transform="translate(0 0)"/></g></g><path class="cls-12" d="M61.19,22s1.71-2.9,2.81-3.4c.59-.19,1,1.65.12,4.46-.47.78-2.93-1.06-2.93-1.06" transform="translate(0 0)"/><path class="cls-12" d="M61.29,22.24a10.8,10.8,0,0,1,2.34,3.65,5.78,5.78,0,0,0-1.56,1.43,12.7,12.7,0,0,1-.78-5.08" transform="translate(0 0)"/><path class="cls-12" d="M48.53,57.23s.18,1.66.22,2.29a9.23,9.23,0,0,1-3.28.11,6.15,6.15,0,0,1,3.06-2.4" transform="translate(0 0)"/><path class="cls-12" d="M45.47,59.63a10.75,10.75,0,0,1,3.8,3.44c-.63.89-.75,1-.75,1s-3.12-2.9-3.05-4.48" transform="translate(0 0)"/><path class="cls-24" d="M29.17,60.38s-1.73.31-.79,1.61a1.51,1.51,0,0,0-.29,2.56c-1.08.87-.87,2.67.4,2.56-.87.9-.54,2.63,1.08,2.13a1.65,1.65,0,0,0,2.7,1.55c.54,1.41,2,1.91,3.21.43.58,1.41,3,2,3.89-.5,1.26,1.33,2.81.54,2.88-1.33,1.62.65,2.23-.69,1.51-1.88,1.66-.18,2.16-1.8,1-2.74,1.48-.54,1-1.88.14-2.34,1-.5,1-1.89,0-1.9a22.84,22.84,0,0,1-15.82-.14" transform="translate(0 0)"/><g class="cls-22"><g class="cls-45"><path class="cls-40" d="M29.17,60.38s-1.73.31-.79,1.61a1.51,1.51,0,0,0-.29,2.56c-1.08.87-.87,2.67.4,2.56-.87.9-.54,2.63,1.08,2.13a1.65,1.65,0,0,0,2.7,1.55c.54,1.41,2,1.91,3.21.43.58,1.41,3,2,3.89-.5,1.26,1.33,2.81.54,2.88-1.33,1.62.65,2.23-.69,1.51-1.88,1.66-.18,2.16-1.8,1-2.74,1.48-.54,1-1.88.14-2.34,1-.5,1-1.89,0-1.9a22.84,22.84,0,0,1-15.82-.14" transform="translate(0 0)"/></g></g><path class="cls-5" d="M54.75,19.07,50,18.2a15.36,15.36,0,0,0-1-6.33,35.28,35.28,0,0,1-.41,6.42H41.13a17.61,17.61,0,0,1,1.38-7.15C40,13.62,39.75,18.8,39.75,18.8H34.16a13.12,13.12,0,0,1,1.1-5.69,8.63,8.63,0,0,0-2.34,5.73l-6.28,0a16.51,16.51,0,0,1,2.06-8c-3.58,2.48-3.39,8-3.39,8l-4.81.32c-1.38,1.7-1.38,7.09-1.38,7.09.43,3.6,2,14.21,16.55,14.5,6-.22,9.23-.22,14.64-4.61,6.85-5.91,4.45-17.1,4.45-17.1" transform="translate(0 0)"/><g class="cls-6"><g class="cls-46"><path class="cls-8" d="M29.25,33.26s7.29,1.63,13.59-1.36c.27,2.52-2.31,6.46-6.9,6.81s-6.46-4.56-6.69-5.45" transform="translate(0 0)"/></g></g><g class="cls-6"><g class="cls-47"><path class="cls-8" d="M26.89,24.79a1.43,1.43,0,0,0,1-.3,1.41,1.41,0,1,1,.56,2.4c-1-.33-.63-1.16-1-1.34s-.93-.66-.56-.76" transform="translate(0 0)"/></g></g><g class="cls-6"><g class="cls-48"><path class="cls-8" d="M44.41,24.47a1.43,1.43,0,0,1-1-.3,1.41,1.41,0,1,0-.56,2.4c1-.33.63-1.16,1-1.34s.93-.66.56-.76" transform="translate(0 0)"/></g></g><g class="cls-6"><g class="cls-49"><path class="cls-8" d="M30.6,23.93a.29.29,0,0,1-.26-.16c-.5-1-1.1-1.51-1.8-1.51a3,3,0,0,0-1.84,1,.29.29,0,0,1-.49-.29c.71-2.05,1.74-2.36,2.29-2.36,1.17,0,2.19,1.31,2.38,3a.29.29,0,0,1-.21.31H30.6" transform="translate(0 0)"/></g></g><g class="cls-6"><g class="cls-50"><path class="cls-8" d="M39.21,23.6a.29.29,0,0,1-.15,0,.29.29,0,0,1-.11-.36c1.22-2.93,2.81-3.37,3.65-3.37a3.56,3.56,0,0,1,3.19,2.85.29.29,0,0,1-.5.26,3.05,3.05,0,0,0-2.38-1.3c-1.83,0-3.45,1.84-3.47,1.86a.29.29,0,0,1-.22.1" transform="translate(0 0)"/></g></g><path d="M30,25.23a1.14,1.14,0,0,0-1.06-.93c-.88,0-1.11.83-1.58.7s.2.5.57.53a16.62,16.62,0,0,0,2.07-.3" transform="translate(0 0)"/><path class="cls-10" d="M30,25.61a1.12,1.12,0,1,1-1.12-1.13A1.12,1.12,0,0,1,30,25.61" transform="translate(0 0)"/><path class="cls-51" d="M29.53,25.62a.66.66,0,1,1-.66-.66.66.66,0,0,1,.66.66" transform="translate(0 0)"/><path class="cls-52" d="M28.77,25.38a.33.33,0,1,1-.33-.33.33.33,0,0,1,.33.33" transform="translate(0 0)"/><path class="cls-52" d="M29.76,26.15a.18.18,0,0,1-.19.18.18.18,0,1,1,.19-.18" transform="translate(0 0)"/><path class="cls-42" d="M26.49,23s2.45-2.74,4.11.62c-.29-2.77-2.84-4.27-4.11-.62" transform="translate(0 0)"/><path class="cls-42" d="M39.21,23.31s3.49-4,6.3-.56c-.75-2.77-4.24-4.4-6.3.56" transform="translate(0 0)"/><path class="cls-53" d="M29.71,33.65a19.63,19.63,0,0,0,12.8-1.33,7.33,7.33,0,0,1-7.21,5.91c-2.78,0-4.9-3.17-5.59-4.58" transform="translate(0 0)"/><path class="cls-40" d="M36.67,35.71c3-.56,4.14-2,4.57-2.84A20,20,0,0,1,31.5,34c.55.81,2,2.3,5.17,1.71" transform="translate(0 0)"/><path class="cls-24" d="M36.62,35.59c2.74-.49,3.8-1.8,4.19-2.53a18.87,18.87,0,0,1-8.94,1c.5.72,1.85,2,4.74,1.52" transform="translate(0 0)"/><path class="cls-54" d="M33.71,37.89a4,4,0,0,0,1.59.35,7.53,7.53,0,0,0,3.66-1c-2.2-1.71-4.44-.09-5.25.63" transform="translate(0 0)"/><g class="cls-15"><g class="cls-55"><path class="cls-54" d="M36,37.64a2.48,2.48,0,0,1-1.48-.34,6.73,6.73,0,0,0-.77.59,4,4,0,0,0,1.59.35,7.54,7.54,0,0,0,3.66-1,3.9,3.9,0,0,0-.63-.4,4.17,4.17,0,0,1-2.37.78" transform="translate(0 0)"/></g></g><path class="cls-42" d="M21.2,13.83A8.42,8.42,0,0,0,19,19.53l-2.13.12S16.67,24,19.11,26.3c0,0,0-5.39,1.38-7.09a14.69,14.69,0,0,1,.7-5.38" transform="translate(0 0)"/><path class="cls-44" d="M60.83,17.65C59.74,8.92,53.62,6.83,53.62,6.83s.36-.43,2.16-.72a2.55,2.55,0,0,0-3-.14,3.27,3.27,0,0,0-1.08-2.74A2.8,2.8,0,0,1,52,5.75c-1.8-3-8.08-6.2-16.15-5.7-12,1.51-14.42,7.14-14.42,7.14-7.72,4-5.48,12.55-5.48,12.55l1-.09L19,19.53a8.42,8.42,0,0,1,2.18-5.7,14.69,14.69,0,0,0-.7,5.38l4.81-.32s-.18-5.55,3.39-8a16.51,16.51,0,0,0-2.06,8l6.28,0a8.63,8.63,0,0,1,2.34-5.73,13.13,13.13,0,0,0-1.1,5.69h5.59s.27-5.18,2.75-7.66a17.61,17.61,0,0,0-1.37,7.15h7.43A35.28,35.28,0,0,0,49,11.88a15.36,15.36,0,0,1,1,6.33l4.77.87s2.4,11.19-4.45,17.1c6.2.29,13.12-5.34,10.53-18.53" transform="translate(0 0)"/><g class="cls-6"><g class="cls-56"><path class="cls-44" d="M60.83,17.65C59.74,8.92,53.62,6.83,53.62,6.83s.36-.43,2.16-.72a2.55,2.55,0,0,0-3-.14,3.27,3.27,0,0,0-1.08-2.74A2.8,2.8,0,0,1,52,5.75c-1.8-3-8.08-6.2-16.15-5.7-6,.76-9.65,2.55-11.75,4.15l.14,0c18.1-9.16,27.56,2.85,27.56,2.85a1.89,1.89,0,0,0,.74-1.35,4.39,4.39,0,0,1,.07,1.72S53,6.24,53.85,6.24A1.25,1.25,0,0,0,53,7.65c10.09,6.15,5,18.94,4.9,15.86S56.38,14.67,54,12.26c1.44,3.94,1,5.58,1,5.58l-4.13-.48s.1-5.48-2.69-8.56c1.06,3.08-.58,8.46-.58,8.46l-5.1-.1s.19-5.1,1.54-7.88a10.8,10.8,0,0,0-4.81,8.17l-3.46-.19S35.32,13.9,37.54,9a13.69,13.69,0,0,0-5.48,8.46c-.19.29-4,.1-4,.1A27,27,0,0,1,30.9,7.84a13,13,0,0,0-6.54,9.9l-3.17-.1a22.64,22.64,0,0,1,2.11-6.73,9.23,9.23,0,0,0-5.1,7.21L16.38,18a13,13,0,0,1,1.09-7.5c-2.88,4.14-1.57,9.21-1.57,9.21l1-.09L19,19.53a8.42,8.42,0,0,1,2.18-5.7,14.69,14.69,0,0,0-.7,5.38l4.81-.32s-.18-5.55,3.39-8a16.51,16.51,0,0,0-2.06,8l6.28,0a8.63,8.63,0,0,1,2.34-5.73,13.13,13.13,0,0,0-1.1,5.69h5.59s.27-5.18,2.75-7.66a17.61,17.61,0,0,0-1.37,7.15h7.43A35.28,35.28,0,0,0,49,11.88a15.36,15.36,0,0,1,1,6.33l4.77.87s2.4,11.19-4.45,17.1c6.2.29,13.12-5.34,10.53-18.53" transform="translate(0 0)"/></g></g><path class="cls-42" d="M21.38,7.19l.1-.09a2.46,2.46,0,0,1,.29-.2,3.47,3.47,0,0,1,.43-.24l.53-.21L23,6.36l.27-.06.49-.08a3.86,3.86,0,0,1,.48,0,4.29,4.29,0,0,1-.44.2l-.46.16-.26.08-.26.1-.52.17-.46.15-.33.1-.13,0" transform="translate(0 0)"/><path class="cls-5" d="M19.11,26.3s-2.67-1.52-3.08,2c.12,2.49,2.65,3.43,3.92,2a29.61,29.61,0,0,1-.84-4.07" transform="translate(0 0)"/><g class="cls-6"><g class="cls-57"><path class="cls-8" d="M19.11,26.3s-2.67-1.52-3.08,2c.12,2.49,2.65,3.43,3.92,2a29.61,29.61,0,0,1-.84-4.07" transform="translate(0 0)"/></g></g><g class="cls-15"><g class="cls-58"><path class="cls-17" d="M18.93,28.66s-.13-1.32-.87-1.24-1.19,1.23-.41,2.13c.61.56,1.41.16,1.28-.88" transform="translate(0 0)"/></g></g><path class="cls-5" d="M55,26.83a13.44,13.44,0,0,1-1.06,4.09A3,3,0,0,0,58.49,29c.34-2.16-1.3-4-3.51-2.21" transform="translate(0 0)"/><g class="cls-6"><g class="cls-59"><path class="cls-8" d="M55,26.83a13.44,13.44,0,0,1-1.06,4.09A3,3,0,0,0,58.49,29c.34-2.16-1.3-4-3.51-2.21" transform="translate(0 0)"/></g></g><g class="cls-15"><g class="cls-60"><path class="cls-17" d="M55.37,28.46s-.63,1.68.91,1.49a1.18,1.18,0,0,0,.43-2.21c-.67-.24-1.06.1-1.35.72" transform="translate(0 0)"/></g></g><path class="cls-12" d="M35.82,41.76A10.6,10.6,0,0,0,33.24,41c-.44.1-.06,2.65.08,2.85s2.12-.77,2.5-1.06,0-1,0-1" transform="translate(0 0)"/><path class="cls-12" d="M36.67,41.8a22.83,22.83,0,0,1,2.56-1.12c.56-.13.33,1,.33,2.12s.08,1.21-.67,1-2.44-1-2.44-1-.1-.71.21-1" transform="translate(0 0)"/><path d="M36.09,41.7s-.35,0-.4.46,0,.71.46.71.58-.17.58-.71-.13-.48-.65-.46" transform="translate(0 0)"/><path class="cls-12" d="M46,50.89l.8.83a20.54,20.54,0,0,0,3.61-3.86l-.79-.65Z" transform="translate(0 0)"/><path class="cls-12" d="M29.89,59.25l-.78-.2-.19,1.16s7,3.8,16.76,0l-.27-1.44s-6.15,3.57-15.52.43" transform="translate(0 0)"/><path class="cls-24" d="M29.17,60.38S24.7,71.05,35,71.25c7.93-.14,10.19-3.51,10-10.72-3.51,1-8.08,2.45-15.82-.14" transform="translate(0 0)"/><g class="cls-22"><g class="cls-61"><path class="cls-40" d="M45,60.53c-3.51,1-8.08,2.45-15.82-.14,0,0-.07.17-.17.45a16.43,16.43,0,0,0,7.28,2.39,17,17,0,0,0,4.39,0c1-.15,2.11-.63,3.15-.35.06,0,0,.13,0,.17-1.07,2.65-4.52,2.61-7,3.2,1.79.48,3.7-.33,5.49-.44.09,0,.06.13,0,.17a7.39,7.39,0,0,1-4.72,3.85,9.37,9.37,0,0,1-6.09-.1A15.31,15.31,0,0,1,29,68.47c.89,1.55,2.67,2.71,6,2.77,7.93-.14,10.19-3.51,10-10.72" transform="translate(0 0)"/></g></g><g class="cls-22"><g class="cls-62"><path class="cls-63" d="M30.79,45.66a10.8,10.8,0,0,0-1.29,5.27c0,.13.21-.08.22-.15a14.18,14.18,0,0,1,1.19-5.11c.07-.14-.06-.09-.11,0" transform="translate(0 0)"/></g></g><g class="cls-22"><g class="cls-64"><path class="cls-63" d="M44.53,49.19c-.43-.48-.88-1-1.34-1.41s-1.45-1.94-1.88-2.43c0,0-.18.13-.15.18.34.49,1.25,2,1.66,2.39s1,1.06,1.51,1.54c.08.07.27-.2.2-.28" transform="translate(0 0)"/></g></g><path d="M41.34,24.93A1.14,1.14,0,0,1,42.4,24c.88,0,1.11.83,1.58.7s-.2.5-.57.53a16.6,16.6,0,0,1-2.07-.3" transform="translate(0 0)"/><path class="cls-10" d="M43.53,25.32A1.12,1.12,0,1,1,42.4,24.2a1.13,1.13,0,0,1,1.13,1.13" transform="translate(0 0)"/><path class="cls-51" d="M43,25.33a.66.66,0,1,1-.66-.66.66.66,0,0,1,.66.66" transform="translate(0 0)"/><path class="cls-52" d="M42.28,25.1a.33.33,0,1,1-.33-.33.33.33,0,0,1,.33.33" transform="translate(0 0)"/><path class="cls-52" d="M43.27,25.86a.18.18,0,0,1-.19.18.18.18,0,1,1,.19-.18" transform="translate(0 0)"/><g class="cls-22"><g class="cls-65"><path class="cls-40" d="M31.94,41.29a10.56,10.56,0,0,0-2.52,1.62A15.65,15.65,0,0,0,27,45.29s0,.05,0,0a20.14,20.14,0,0,1,4.92-4s.06-.09,0-.07" transform="translate(0 0)"/></g></g><g class="cls-22"><g class="cls-66"><path class="cls-40" d="M47.49,44.71a18.34,18.34,0,0,0-4.81-3.65s-.06,0,0,.06a37,37,0,0,1,4.78,3.7s.1-.07.07-.1" transform="translate(0 0)"/></g></g><g class="cls-6"><g class="cls-67"><path class="cls-8" d="M15.62,43.41c.46-.53.34-1,0-1a3,3,0,0,0-.91-2.81,1,1,0,0,0-.73.36c.34,0,.77.08,1.11.74.6,1.19.3,2-1.15.89,0,.12.09.25.14.38a.86.86,0,0,0-.29.41.41.41,0,0,1,.33.13.94.94,0,0,0,1.28.22c.49-.32,0,1.55-1.37.78l.11.08a.9.9,0,0,0-.16.27,1.22,1.22,0,0,0,1.05,0c.63-.28.62.9-.69.7h0a.7.7,0,0,0-.29.4c.34-.08,1-.22,1.22,0s-.29.68-1.09.56a.63.63,0,0,0,.44.15c.72,0,1.25-.79.79-1,.48-.34.62-1.23.19-1.23" transform="translate(0 0)"/></g></g><g class="cls-6"><g class="cls-68"><path class="cls-8" d="M54.75,19.07,50,18.2a15.36,15.36,0,0,0-1-6.33,35.27,35.27,0,0,1-.41,6.42H41.13a17.61,17.61,0,0,1,1.38-7.15C40,13.62,39.75,18.8,39.75,18.8H34.16a13.13,13.13,0,0,1,1.1-5.69,8.63,8.63,0,0,0-2.34,5.73l-6.28,0a16.51,16.51,0,0,1,2.06-8c-3.58,2.48-3.39,8-3.39,8l-4.81.32c-1.38,1.7-1.38,7.09-1.38,7.09.43,3.6,2,14.21,16.55,14.5,6-.22,9.23-.22,14.64-4.61,6.85-5.91,4.45-17.1,4.45-17.1M35.52,40C22.9,39.42,19,28.9,22.11,20.1l3.53-.36a8.32,8.32,0,0,1,.43-2.24c0,2.31.29,2.45.29,2.45l6.71-.14a5.19,5.19,0,0,1,.65-2.09A3,3,0,0,0,34.44,20l5.77-.29L40.56,18l.29,1.51,7.93.14a3.3,3.3,0,0,0,.58-1.8A4.69,4.69,0,0,1,49.65,20l3.24.36s3.82,20-17.38,19.69" transform="translate(0 0)"/></g></g><g class="cls-69"><g class="cls-70"><path class="cls-44" d="M17.86,16.3s.14-4.46,7-7c-1.25,1.53-2.58,7.25-2.58,7.25h1.53s.35-7.39,9-10.31a16.67,16.67,0,0,0-4,9.9l2.93.07s1.46-7.6,8.36-9.41c-2.23,1.88-3.69,9.13-3.48,9a10.19,10.19,0,0,1,2-.14s2.16-6.62,7.11-8.36C43.92,9.89,42.95,16,43.15,16s3.9.07,3.9.07,1.25-6,.56-8.43c2.58,1.74,3.83,6.2,4,8.64l2.58.28s.35-4.67-2.51-7.87c2.93,1.6,5.64,6.9,5.64,6.9s-1.25-7-6.55-8.08c-1.88-4.32-14.91-9.62-26.2-2.3,3.48-1.25,5.09-1,5.09-1s-11.57,2.93-13,11.57a4.61,4.61,0,0,1,1.18.56" transform="translate(0 0)"/></g></g><g class="cls-69"><g class="cls-71"><path class="cls-44" d="M63.6,28.33A8.76,8.76,0,0,1,58,36.59c-3.32,1.37-4.42,3.25-3.25,5.2s.91,2.41.26,3.58a6.26,6.26,0,0,0,1.69-2.28,4.34,4.34,0,0,1-.33,3A2.41,2.41,0,0,0,57,49.47a4.84,4.84,0,0,1,.91-3.71,3.47,3.47,0,0,0,.52,2c.13-2.41.33-2.15-.65-4.49s-.91-2.93,2.41-5.2S66,32.43,63.6,28.33" transform="translate(0 0)"/></g></g></g></g></g></g></g></g></svg>