<svg xmlns="http://www.w3.org/2000/svg" width="97" height="96" viewBox="0 0 97 96" fill="none">
<g clip-path="url(#clip0_247_551)">
<path d="M20.5534 44.6921H19.0086V80.402C19.0086 81.3615 18.6336 82.276 17.8237 82.8157C17.2837 83.6252 16.3688 84 15.409 84C14.4536 84 13.5387 83.6252 12.8637 82.8157C12.1888 82.276 11.8093 81.3615 11.8093 80.402V44.6921H10.2885C7.58881 44.1674 5.15608 42.7282 3.27528 40.6144C2.36143 39.2951 1.62651 37.766 1.2622 36.1319C0.89773 34.4978 0.913418 32.8037 1.3081 31.1697L5.19057 13.652C5.30456 13.1618 5.59403 12.7285 6.00498 12.4362C6.41594 12.1453 6.91988 12.0149 7.42233 12.0689C7.92327 12.1244 8.38672 12.3612 8.72419 12.736C9.06315 13.1093 9.25213 13.595 9.25663 14.0987V32.6089H11.4929L13.6901 13.571C13.7411 13.1498 13.9436 12.7615 14.2601 12.4797C14.578 12.1978 14.9875 12.0419 15.412 12.0419C15.8349 12.0419 16.2489 12.1978 16.5638 12.4797C16.8788 12.7615 17.0888 13.1498 17.1338 13.571L19.3235 32.6089H21.5583V14.0987C21.5733 13.595 21.7533 13.1093 22.0982 12.736C22.4282 12.3612 22.8931 12.1244 23.4031 12.0689C23.898 12.0149 24.273 12.1453 24.8129 12.4362C25.2179 12.7285 25.5178 13.1618 25.6228 13.652L29.5074 31.1697C29.9124 32.7888 29.9274 34.4828 29.5674 36.1169C29.2074 37.751 28.4725 39.2801 27.4376 40.5994C25.6828 42.7132 23.2531 44.1674 20.5534 44.6921ZM94.6453 12.3522C95.1102 12.5516 95.5452 12.8424 95.8901 13.2082C96.2501 13.5725 96.5351 14.0043 96.73 14.478C96.91 14.9533 97 15.4585 97 15.9697V80.402C97 81.3615 96.625 82.276 95.8151 82.8157C95.2752 83.6252 94.3603 84 93.4004 84C92.4405 84 91.5256 83.6252 90.8507 82.8157C90.1758 82.276 89.8008 81.3615 89.8008 80.402V57.6148H82.6016C81.3267 57.6148 80.1119 57.1051 79.212 56.2056C78.3121 55.3061 77.8021 54.0918 77.8021 52.8175L77.8621 33.3584C77.8321 28.8759 79.122 24.4834 81.5967 20.7385C84.0564 16.9951 87.581 14.0658 91.7206 12.3237C92.1705 12.1363 92.6655 11.9055 93.1604 12.0404C93.6704 12.0449 94.1803 12.1513 94.6453 12.3507V12.3522Z" fill="#D6EBFF"/>
<path d="M33.6497 30.0752L31.5347 20.5292C37.9247 16.0112 45.6947 13.8737 53.5097 14.4872C61.3097 15.1007 68.6447 18.4277 74.2547 23.8892C73.1597 26.9102 72.5897 30.1052 72.5747 33.3152V37.8452C70.9397 34.3352 68.4947 31.2752 65.4197 28.9202C62.3447 26.5802 58.7447 25.0052 54.9347 24.3467C51.1247 23.6897 47.2097 23.9687 43.5347 25.1552C39.8597 26.3402 36.5147 28.4102 33.8147 31.1702C33.7547 30.8102 33.7697 30.4502 33.6497 30.0752ZM64.4747 34.4252C68.0747 38.0252 70.0997 42.9152 70.0997 47.8652C70.0997 51.7952 68.9747 55.5152 66.8597 58.6652C64.7597 61.8302 61.7597 64.2902 58.1147 65.7452C54.7397 67.1852 50.8847 67.5752 47.1497 66.8252C43.4297 66.0902 40.0097 64.2602 37.3247 61.5752C34.6397 58.8902 32.8097 55.4702 32.0747 51.6152C31.3247 48.0152 31.7147 44.1602 33.1547 40.6502C34.6097 37.1402 37.0697 34.1402 40.2347 32.0402C43.3847 29.9252 47.1047 28.6652 50.8997 28.6652C55.9847 28.6652 60.8747 30.8252 64.4747 34.4252ZM81.2597 62.3402C78.7547 67.6802 74.8847 72.2552 70.0397 75.6152C65.1947 78.9752 59.5397 81.0152 53.6747 81.4952C47.7947 81.9752 41.8847 80.9102 36.5597 78.3902C31.2347 75.8702 26.6597 71.9852 23.2997 67.1402V48.7352C24.6047 48.2702 25.8497 47.6402 27.0197 46.8602C26.9897 47.1152 26.8997 47.6102 26.8997 47.8652C26.7647 53.6102 28.8497 59.0402 32.4347 63.3602C36.0347 67.6652 41.0147 70.5752 46.5347 71.5952C52.0547 72.6152 57.7397 71.6552 62.6297 68.8952C67.5197 66.0152 71.2847 61.7702 73.2647 56.5202C73.7447 57.6602 74.3147 58.6952 75.3197 59.5802C76.9097 61.1702 79.0247 62.1452 81.2597 62.3402Z" fill="#ADD6FF"/>
</g>
<defs>
<clipPath id="clip0_247_551">
<rect width="96" height="96" fill="white" transform="translate(0.5)"/>
</clipPath>
</defs>
</svg>